<?xml version="1.0" encoding="utf-8"?>
<!-- Generator: Adobe Illustrator 18.1.1, SVG Export Plug-In . SVG Version: 6.00 Build 0)  -->
<svg version="1.1" id="Capa_1" xmlns="http://www.w3.org/2000/svg" xmlns:xlink="http://www.w3.org/1999/xlink" x="0px" y="0px"
	 viewBox="50 -128 612 512" enable-background="new 50 -128 612 512" xml:space="preserve">
<rect x="50" y="-90.6" display="none" fill="#231F20" width="612" height="437.1"/>
<g>
	<g>
		<path fill="#FFFFFF" d="M356,215.4l-75.7-66.3L63.8,334.7c7.9,7.3,18.5,11.8,30.2,11.8h524c11.7,0,22.3-4.5,30.1-11.8L431.7,149.2
			L356,215.4z"/>
		<path fill="#FFFFFF" d="M648.2-78.7c-7.9-7.3-18.4-11.8-30.2-11.8H94c-11.7,0-22.3,4.5-30.1,11.9L356,171.7L648.2-78.7z"/>
		<polygon fill="#FFFFFF" points="50,-52.2 50,311 261.3,131.5 		"/>
		<polygon fill="#FFFFFF" points="450.7,131.5 662,311 662,-52.3 		"/>
	</g>
</g>
</svg>
