<?xml version="1.0" encoding="utf-8"?>
<!-- Generator: Adobe Illustrator 18.1.1, SVG Export Plug-In . SVG Version: 6.00 Build 0)  -->
<svg version="1.1" id="Layer_1" xmlns="http://www.w3.org/2000/svg" xmlns:xlink="http://www.w3.org/1999/xlink" x="0px" y="0px"
	 viewBox="-122 -5.9 266.9 266.9" enable-background="new -122 -5.9 266.9 266.9" xml:space="preserve">
<path fill="#FFFFFF" d="M126.1-1.3h-229.3c-7.9,0-14.2,6.4-14.2,14.2v229.3c0,7.9,6.4,14.2,14.2,14.2H20.2v-99.8h-33.6v-38.9h33.6
	V89c0-33.3,20.3-51.4,50-51.4c14.2,0,26.4,1.1,30,1.5v34.8l-20.6,0c-16.1,0-19.3,7.7-19.3,18.9v24.8h38.5l-5,38.9H60.4v99.8v0h65.7
	v0c7.9,0,14.2-6.4,14.2-14.2V12.9C140.3,5.1,133.9-1.3,126.1-1.3z"/>
</svg>
