<?xml version="1.0" encoding="utf-8"?>
<!-- Generator: Adobe Illustrator 16.0.0, SVG Export Plug-In . SVG Version: 6.00 Build 0)  -->
<!DOCTYPE svg PUBLIC "-//W3C//DTD SVG 1.1//EN" "http://www.w3.org/Graphics/SVG/1.1/DTD/svg11.dtd">
<svg version="1.1" id="Layer_1" xmlns="http://www.w3.org/2000/svg" xmlns:xlink="http://www.w3.org/1999/xlink" x="0px" y="0px"
	 width="750.972px" height="790.847px" viewBox="0 0 750.972 790.847" enable-background="new 0 0 750.972 790.847"
	 xml:space="preserve">
<g>
	<defs>
		<rect id="SVGID_1_" x="-216.896" y="-116.377" width="1024" height="1024"/>
	</defs>
	<clipPath id="SVGID_2_">
		<use xlink:href="#SVGID_1_"  overflow="visible"/>
	</clipPath>
	<path clip-path="url(#SVGID_2_)" fill="#FFFFFF" d="M13.531,221.048c0.014-24.66,63.579-224.913,393.823-101.077
		c207.729,75.113,169.903,277.77,144.277,282.556c-35.399,6.611-105.223-53.907-260.267-95.587
		C161.952,272.152,13.497,280.635,13.531,221.048"/>
	<path clip-path="url(#SVGID_2_)" fill="#FFFFFF" d="M326.381,94.507c86.242,28.884,72.976-63.411,86.391-74.221
		C422.604,12.362,449.104,0,462.104,0c8.5,0,32.927,2.1,33,15.215c0.074,13.312-98.274,90.4-7.46,148.004"/>
	<path clip-path="url(#SVGID_2_)" fill="#FFFFFF" d="M493.439,434.416c0.165,34.707-3.335,74.207-14.443,114.379
		c-55.142,7.578-112.294,1.474-153.9-18.426c0.259-24.746,12.676-93.746,29.457-148.154l-37.079-9.262
		c-13.369,56.337-23.157,97.687-27.062,163.236c-4.782,80.249,1.324,152.512,18.146,236.476l27.286-10.291
		c-16.405-75.75-16.787-125.927-13.705-189.337c44.966,16.087,94.466,15.587,148.817,10.289
		c-3.352,18.798-17.988,62.132-33.352,96.173l20.987,14.467c23.409-40.015,62.624-163.087,72.091-242.955L493.439,434.416z"/>
	<path clip-path="url(#SVGID_2_)" fill="#FFFFFF" d="M239.131,351.912c-32.027,94.045-46.525,220.06-24.222,331.851
		c4.915,24.64,6.246,45.833,13.971,71.909c-33.876-10.489-59.659-23.669-83.371-46.555C52.438,619.29,27.612,465.119,51.305,311.181
		L8.003,295.152C-12.414,405.763-11.562,730.29,234.482,790.2c21.456,4.257,34.693-13.382,30.871-26.506
		c-39.915-137.071-31.582-279.737,9.751-401.505L239.131,351.912z"/>
	<path clip-path="url(#SVGID_2_)" fill="#FFFFFF" d="M477.854,25.373c0.5,15,22.198,51.24,48.175,44.683
		c9.495-2.396,23.062-9.414,28.641-6.128c5.357,3.155,5.996,3.43,8.853,4.368c5.429,1.784,7.812,1.559,19.832-5.229
		c7.59-4.285,24.668-5.188,26.644-4.379c4.823,1.976,3.969,9.595,2.228,15.655c-2.391,8.327-8.516,13.925-6.158,17.609
		c3.819,5.966,30.123-6.525,48.368-11.718c12.662-3.604,22.429-0.885,24.799,3.047c1.461,2.423,0.631,5.996-3.222,13.412
		c-4.23,8.142-13.233,15.912-11.294,20.723c1.372,3.403,24.915,0.374,38.345,0.335c11.738-0.034,16.006,4.481,17.432,7.395
		c1.046,2.138-2.965,5.417-7.187,10.613c-4.31,5.303-13.244,6.508-11.749,11.746c2.125,7.442,19.035,4.413,29.745,11.036
		c7.424,4.591,14.108,10.277,14.133,12.498c0.062,5.878-7.144,4.107-6.734,11.799c0.269,5.041,3.529,6.591,8.318,9.98
		c3.648,2.583,4.302,9.923,3.803,12.973c-0.877,5.357-10.745,8.556-18.794,8.496c-14.282-0.106-12.686-5.879-19.188-3.434
		c-9.762,3.67-2.932,18.292-18.171,21.481c-6.524,1.365-15.41-8.46-17.435-11.148c-11.156-14.823-15.247-18.578-19.417-18.99
		c-4.262-0.42-3.396,10.78-7.394,19.567c-3.723,8.181-4.119,13.193-8.056,12.865c-7.514-0.626-14.199-9.094-18.403-13.762
		c-11.195-12.431-10.729-37.623-23.017-41.6c-22.146-7.169-14.189,25.06-29.995,19.887c-2.488-0.815-7.92-6.74-9.084-8.604
		c-8.057-12.888-10.935-42.344-16.426-45.195c-5.69-2.955-3.561,15.02-14.048,10.463c-11.8-5.127-14.348-29.719-26.297-60.119
		c-4.977-12.662-29.329-32.826-41.996-40.826C447.237,44.852,477.8,23.713,477.854,25.373"/>
</g>
</svg>
