<?xml version="1.0" encoding="utf-8"?>
<!-- Generator: Adobe Illustrator 16.0.0, SVG Export Plug-In . SVG Version: 6.00 Build 0)  -->
<!DOCTYPE svg PUBLIC "-//W3C//DTD SVG 1.1//EN" "http://www.w3.org/Graphics/SVG/1.1/DTD/svg11.dtd">
<svg version="1.1" id="Layer_1" xmlns="http://www.w3.org/2000/svg" xmlns:xlink="http://www.w3.org/1999/xlink" x="0px" y="0px"
	 width="400px" height="253px" viewBox="0 0 400 253" enable-background="new 0 0 400 253" xml:space="preserve">
<g>
	<g>
		<path fill-rule="evenodd" clip-rule="evenodd" fill="#5FB0E2" d="M68.392,153.967c52.408-33.666,111.818-9.448,141.41,6.757
			C168.812,144.535,108.717,140.738,68.392,153.967z"/>
		<radialGradient id="SVGID_1_" cx="103.439" cy="40.6411" r="190.9902" gradientUnits="userSpaceOnUse">
			<stop  offset="0" style="stop-color:#5FB0E2"/>
			<stop  offset="0.0912" style="stop-color:#45A1D7"/>
			<stop  offset="0.208" style="stop-color:#2C93CD"/>
			<stop  offset="0.3383" style="stop-color:#1888C4"/>
			<stop  offset="0.4876" style="stop-color:#0B80BE"/>
			<stop  offset="0.6724" style="stop-color:#027BBB"/>
			<stop  offset="1" style="stop-color:#007ABA"/>
		</radialGradient>
		<path fill-rule="evenodd" clip-rule="evenodd" fill="url(#SVGID_1_)" d="M160.397-0.219c25.185,0,46.857,14.844,56.537,36.156
			h-19.701c-8.695-10.728-22.068-17.601-37.065-17.601c-14.75,0-27.926,6.644-36.63,17.067c0.466-0.372,0.941-0.74,1.441-1.097
			c20.59-14.696,48.046,1.503,48.046,1.503s-26.091-7.543-43.733,4.824c-17.641,12.368-14.805,37.13-14.805,37.13
			s-0.116-0.328-0.294-0.925c0.074,0.285,0.15,0.569,0.229,0.852c-4.231-3.113-9.358-5.151-14.943-5.684
			c-0.665-3.59-1.014-7.288-1.014-11.067C98.466,27.161,126.194-0.219,160.397-0.219L160.397-0.219z M81.195,139.679v-5.288
			c16.38-12.093,46.522-27.827,82.763-16.471c55.079,17.26,90.13,40.739,132.692,30.172c42.562-10.566,46.316-33.814,46.316-33.814
			s-7.511,32.833-49.446,40.039c-41.937,7.207-80.564-0.871-129.699-19.188C130.66,122.766,98.562,132.354,81.195,139.679
			L81.195,139.679z M81.195,129.062c3.045-2.06,6.159-4,9.004-5.482c-1.39-0.884-2.691-1.894-3.865-3.048
			c-2.188-2.151-3.863-4.548-5.14-7.022v11.374c0.11,0.109,0.22,0.22,0.333,0.328c0.549,0.518,1.122,0.999,1.713,1.448
			c-0.698-0.331-1.381-0.688-2.046-1.072V129.062L81.195,129.062z M81.195,76.039V56.569c4.003-1.368,8.263-2.197,12.688-2.395
			c-0.228,2.224-0.346,4.481-0.346,6.764c0,3.837,0.334,7.597,0.971,11.254C89.669,72.397,85.137,73.771,81.195,76.039z
			 M81.195,56.569v19.469c-8.633,4.962-14.437,14.198-14.437,24.774c0,10.575,5.805,19.811,14.437,24.774v3.475
			c-3.479,2.353-6.872,4.86-9.68,7.014C59.088,128.148,50.86,114.35,50.86,98.653C50.86,79.165,63.539,62.604,81.195,56.569
			L81.195,56.569z M81.195,113.51c-5.521-10.691-3.618-22.823-3.618-22.823s-9.347,21.433,3.618,34.197V113.51L81.195,113.51z
			 M81.195,134.391c-8.516,6.286-13.314,11.589-13.314,11.589c0,0.229,4.95-2.773,13.314-6.301V134.391z"/>
		<path fill-rule="evenodd" clip-rule="evenodd" fill="#5FB0E2" d="M219.715,126.017c0,0,26.288,13.457,51.012,11.266
			c24.723-2.19,32.233-10.953,32.233-10.953s-9.076,16.743-32.86,17.682S219.715,126.643,219.715,126.017z"/>
		<rect x="199.56" y="40.992" fill-rule="evenodd" clip-rule="evenodd" fill="#5FB0E2" width="22.098" height="22.095"/>
		<rect x="287.315" y="102.211" fill-rule="evenodd" clip-rule="evenodd" fill="#0088CF" width="17.091" height="17.089"/>
		<rect x="226.188" y="20.745" fill-rule="evenodd" clip-rule="evenodd" fill="#5FB0E2" width="29.466" height="29.463"/>
		<rect x="311.734" y="71.733" fill-rule="evenodd" clip-rule="evenodd" fill="#0088CF" width="29.467" height="29.463"/>
		<rect x="258.479" y="52.472" fill-rule="evenodd" clip-rule="evenodd" fill="#5FB0E2" width="16.429" height="16.426"/>
		<rect x="269.467" y="84.826" fill-rule="evenodd" clip-rule="evenodd" fill="#5FB0E2" width="16.429" height="16.426"/>
		<rect x="234.887" y="86.466" fill-rule="evenodd" clip-rule="evenodd" fill="#0088CF" width="16.428" height="16.426"/>
		<rect x="292.473" y="53.039" fill-rule="evenodd" clip-rule="evenodd" fill="#0088CF" width="16.428" height="16.426"/>
	</g>
	<g>
		<path fill="#0A8CCC" d="M51.052,211.208c0,4.007-0.668,7.686-2.003,11.037c-1.336,3.352-3.213,6.236-5.632,8.655
			c-2.419,2.42-5.33,4.297-8.731,5.633s-7.169,2.003-11.302,2.003H2.519v-54.657h20.865c4.132,0,7.9,0.675,11.302,2.022
			c3.402,1.349,6.312,3.227,8.731,5.632c2.419,2.407,4.296,5.286,5.632,8.638C50.384,203.522,51.052,207.201,51.052,211.208z
			 M40.657,211.208c0-2.999-0.403-5.688-1.209-8.07c-0.807-2.381-1.953-4.396-3.439-6.048c-1.487-1.65-3.295-2.916-5.424-3.799
			c-2.13-0.882-4.53-1.322-7.201-1.322H12.762v38.479h10.621c2.671,0,5.071-0.44,7.201-1.323c2.129-0.882,3.937-2.147,5.424-3.799
			c1.486-1.649,2.633-3.666,3.439-6.048C40.254,216.896,40.657,214.207,40.657,211.208z"/>
		<path fill="#0A8CCC" d="M66.058,188.453c0,0.807-0.164,1.562-0.492,2.268c-0.328,0.706-0.762,1.323-1.304,1.853
			c-0.542,0.529-1.178,0.951-1.909,1.266c-0.731,0.315-1.512,0.473-2.343,0.473c-0.807,0-1.569-0.157-2.287-0.473
			c-0.718-0.314-1.342-0.736-1.871-1.266c-0.529-0.529-0.952-1.146-1.267-1.853c-0.315-0.705-0.472-1.461-0.472-2.268
			c0-0.832,0.157-1.612,0.472-2.344c0.315-0.73,0.737-1.36,1.267-1.89c0.529-0.529,1.153-0.951,1.871-1.267
			c0.718-0.314,1.48-0.473,2.287-0.473c0.832,0,1.612,0.158,2.343,0.473c0.731,0.315,1.367,0.737,1.909,1.267
			c0.542,0.529,0.976,1.159,1.304,1.89C65.894,186.841,66.058,187.621,66.058,188.453z M64.66,199.755v38.781h-9.336v-38.781H64.66z
			"/>
		<path fill="#0A8CCC" d="M84.843,199.074c1.663,0,3.226,0.17,4.687,0.511c1.461,0.34,2.797,0.838,4.007,1.493h11.15v3.478
			c0,0.579-0.151,1.033-0.454,1.36c-0.302,0.328-0.819,0.555-1.549,0.681l-3.478,0.643c0.251,0.655,0.447,1.348,0.586,2.078
			c0.138,0.731,0.208,1.5,0.208,2.307c0,1.915-0.384,3.647-1.153,5.197c-0.769,1.549-1.827,2.866-3.175,3.949
			c-1.349,1.084-2.948,1.922-4.8,2.514c-1.853,0.593-3.862,0.889-6.029,0.889c-1.461,0-2.885-0.139-4.271-0.416
			c-1.209,0.736-1.814,1.562-1.814,2.475c0,0.787,0.359,1.365,1.077,1.732c0.718,0.368,1.663,0.628,2.835,0.78
			s2.5,0.229,3.988,0.229c1.487,0,3.011,0.063,4.574,0.19c1.562,0.126,3.086,0.348,4.574,0.663c1.486,0.316,2.816,0.815,3.988,1.498
			c1.171,0.683,2.117,1.612,2.834,2.788c0.718,1.175,1.078,2.686,1.078,4.53c0,1.72-0.422,3.388-1.267,5.007
			c-0.844,1.617-2.066,3.059-3.666,4.323c-1.601,1.263-3.56,2.28-5.878,3.053c-2.319,0.771-4.964,1.156-7.938,1.156
			c-2.948,0-5.506-0.284-7.673-0.851c-2.167-0.567-3.963-1.323-5.386-2.268c-1.424-0.945-2.489-2.036-3.194-3.27
			c-0.706-1.235-1.059-2.521-1.059-3.855c0-1.814,0.554-3.34,1.663-4.574s2.646-2.217,4.611-2.948
			c-0.958-0.529-1.726-1.234-2.306-2.116s-0.869-2.028-0.869-3.44c0-0.579,0.101-1.178,0.302-1.795s0.51-1.229,0.926-1.833
			c0.416-0.605,0.938-1.178,1.568-1.721c0.63-0.541,1.374-1.026,2.23-1.455c-1.966-1.058-3.51-2.469-4.63-4.233
			c-1.122-1.764-1.682-3.83-1.682-6.198c0-1.915,0.384-3.648,1.153-5.198c0.769-1.549,1.839-2.872,3.213-3.969
			c1.373-1.096,2.999-1.934,4.876-2.514C80.578,199.364,82.626,199.074,84.843,199.074z M95.087,240.164
			c0-0.771-0.227-1.401-0.681-1.891c-0.453-0.488-1.071-0.868-1.852-1.139c-0.781-0.271-1.695-0.469-2.74-0.598
			c-1.046-0.129-2.154-0.193-3.326-0.193s-2.381,0-3.629,0c-1.247,0-2.451-0.138-3.61-0.416c-1.058,0.58-1.909,1.267-2.551,2.061
			s-0.964,1.707-0.964,2.74c0,0.681,0.17,1.316,0.51,1.909c0.34,0.592,0.882,1.102,1.625,1.53c0.743,0.429,1.707,0.762,2.892,1.002
			c1.184,0.239,2.633,0.359,4.347,0.359c1.739,0,3.238-0.136,4.498-0.405c1.26-0.271,2.299-0.644,3.119-1.119
			c0.818-0.477,1.417-1.043,1.795-1.698C94.898,241.649,95.087,240.936,95.087,240.164z M84.843,218.2
			c1.159,0,2.167-0.157,3.024-0.473c0.856-0.314,1.569-0.749,2.136-1.304c0.567-0.554,0.995-1.222,1.285-2.003
			c0.29-0.781,0.435-1.638,0.435-2.57c0-1.915-0.573-3.434-1.72-4.555c-1.147-1.121-2.867-1.683-5.16-1.683
			s-4.013,0.562-5.159,1.683c-1.147,1.121-1.72,2.64-1.72,4.555c0,0.907,0.145,1.752,0.435,2.532
			c0.289,0.781,0.718,1.455,1.285,2.022c0.567,0.566,1.285,1.008,2.154,1.322C82.708,218.043,83.709,218.2,84.843,218.2z"/>
		<path fill="#0A8CCC" d="M118.105,188.453c0,0.807-0.164,1.562-0.492,2.268c-0.328,0.706-0.762,1.323-1.304,1.853
			c-0.542,0.529-1.178,0.951-1.909,1.266c-0.731,0.315-1.512,0.473-2.343,0.473c-0.807,0-1.569-0.157-2.287-0.473
			c-0.718-0.314-1.342-0.736-1.871-1.266c-0.529-0.529-0.952-1.146-1.267-1.853c-0.315-0.705-0.472-1.461-0.472-2.268
			c0-0.832,0.157-1.612,0.472-2.344c0.315-0.73,0.737-1.36,1.267-1.89c0.529-0.529,1.153-0.951,1.871-1.267
			c0.718-0.314,1.48-0.473,2.287-0.473c0.832,0,1.612,0.158,2.343,0.473c0.731,0.315,1.367,0.737,1.909,1.267
			c0.542,0.529,0.976,1.159,1.304,1.89C117.941,186.841,118.105,187.621,118.105,188.453z M116.707,199.755v38.781h-9.336v-38.781
			H116.707z"/>
		<path fill="#0A8CCC" d="M136.21,239.141c-3.352,0-5.935-0.95-7.749-2.854c-1.814-1.902-2.722-4.529-2.722-7.881v-21.659h-3.931
			c-0.504,0-0.939-0.163-1.304-0.491c-0.366-0.327-0.548-0.818-0.548-1.474v-3.704l6.237-1.021l1.965-10.584
			c0.101-0.504,0.334-0.895,0.699-1.172s0.825-0.416,1.38-0.416h4.838v12.209h10.206v6.652h-10.206v21.017
			c0,1.209,0.302,2.154,0.907,2.835c0.604,0.68,1.411,1.021,2.419,1.021c0.579,0,1.064-0.069,1.455-0.208
			c0.391-0.139,0.73-0.283,1.021-0.435c0.29-0.151,0.548-0.296,0.775-0.435c0.227-0.139,0.454-0.208,0.681-0.208
			c0.277,0,0.503,0.069,0.68,0.208c0.176,0.139,0.365,0.347,0.567,0.623l2.797,4.536c-1.361,1.134-2.924,1.991-4.687,2.57
			C139.927,238.851,138.1,239.141,136.21,239.141z"/>
		<path fill="#0A8CCC" d="M179.337,238.536h-4.196c-0.882,0-1.575-0.132-2.079-0.396c-0.504-0.265-0.882-0.8-1.134-1.606
			l-0.832-2.76c-0.982,0.883-1.946,1.657-2.892,2.324c-0.945,0.668-1.921,1.229-2.929,1.683c-1.008,0.453-2.079,0.794-3.213,1.021
			s-2.394,0.34-3.78,0.34c-1.638,0-3.15-0.221-4.536-0.663c-1.386-0.442-2.577-1.106-3.572-1.991
			c-0.996-0.885-1.771-1.984-2.325-3.299c-0.554-1.315-0.832-2.845-0.832-4.59c0-1.466,0.384-2.914,1.153-4.343
			c0.769-1.428,2.047-2.717,3.837-3.867c1.789-1.15,4.17-2.105,7.144-2.863c2.973-0.759,6.665-1.139,11.075-1.139v-2.284
			c0-2.615-0.548-4.552-1.644-5.809s-2.69-1.886-4.782-1.886c-1.512,0-2.772,0.177-3.78,0.529c-1.008,0.354-1.884,0.75-2.627,1.19
			c-0.744,0.441-1.431,0.838-2.06,1.19c-0.63,0.354-1.323,0.529-2.079,0.529c-0.63,0-1.172-0.163-1.625-0.491
			c-0.454-0.327-0.819-0.73-1.096-1.209l-1.701-2.986c4.46-4.082,9.84-6.124,16.14-6.124c2.268,0,4.29,0.373,6.066,1.115
			c1.777,0.744,3.282,1.776,4.517,3.1c1.234,1.323,2.173,2.904,2.816,4.744s0.964,3.855,0.964,6.048V238.536z M161.194,232.715
			c0.957,0,1.839-0.087,2.646-0.26c0.806-0.174,1.569-0.435,2.287-0.782c0.718-0.347,1.411-0.774,2.079-1.283
			c0.667-0.508,1.342-1.11,2.022-1.805v-6.491c-2.722,0-4.996,0.171-6.823,0.514c-1.827,0.343-3.295,0.781-4.403,1.313
			c-1.109,0.533-1.896,1.155-2.362,1.866c-0.467,0.71-0.7,1.483-0.7,2.321c0,1.65,0.485,2.83,1.456,3.541
			C158.365,232.36,159.631,232.715,161.194,232.715z"/>
		<path fill="#0A8CCC" d="M194.684,182.367v56.169h-9.336v-56.169H194.684z"/>
		<path fill="#0A8CCC" d="M254.405,211.208c0,4.007-0.668,7.717-2.004,11.132c-1.336,3.414-3.212,6.369-5.632,8.863
			c-2.419,2.495-5.329,4.441-8.731,5.84c-3.401,1.398-7.169,2.098-11.302,2.098s-7.906-0.699-11.32-2.098
			c-3.415-1.398-6.338-3.345-8.77-5.84c-2.432-2.494-4.315-5.449-5.65-8.863c-1.336-3.415-2.004-7.125-2.004-11.132
			s0.668-7.717,2.004-11.132c1.335-3.414,3.219-6.369,5.65-8.864c2.432-2.494,5.354-4.441,8.77-5.84
			c3.414-1.398,7.188-2.098,11.32-2.098s7.9,0.706,11.302,2.117c3.402,1.411,6.312,3.357,8.731,5.84
			c2.42,2.482,4.296,5.431,5.632,8.845C253.737,203.491,254.405,207.201,254.405,211.208z M243.973,211.208
			c0-2.999-0.396-5.688-1.19-8.07c-0.794-2.381-1.935-4.403-3.421-6.066c-1.487-1.663-3.295-2.936-5.424-3.817
			c-2.13-0.882-4.53-1.323-7.201-1.323s-5.078,0.441-7.219,1.323c-2.143,0.882-3.964,2.154-5.462,3.817
			c-1.5,1.663-2.653,3.686-3.459,6.066c-0.807,2.382-1.21,5.071-1.21,8.07s0.403,5.688,1.21,8.069
			c0.806,2.382,1.959,4.398,3.459,6.048c1.498,1.651,3.319,2.917,5.462,3.799c2.141,0.883,4.548,1.323,7.219,1.323
			s5.071-0.44,7.201-1.323c2.129-0.882,3.937-2.147,5.424-3.799c1.486-1.649,2.627-3.666,3.421-6.048
			C243.576,216.896,243.973,214.207,243.973,211.208z"/>
		<path fill="#0A8CCC" d="M285.361,207.957c-0.277,0.354-0.548,0.63-0.812,0.832c-0.265,0.201-0.649,0.302-1.153,0.302
			c-0.479,0-0.944-0.145-1.398-0.435c-0.453-0.289-0.995-0.617-1.625-0.982s-1.38-0.693-2.249-0.983
			c-0.869-0.289-1.946-0.435-3.231-0.435c-1.639,0-3.075,0.297-4.31,0.889c-1.235,0.592-2.262,1.442-3.08,2.552
			c-0.819,1.108-1.431,2.45-1.834,4.025s-0.604,3.357-0.604,5.349c0,2.066,0.221,3.906,0.661,5.519
			c0.441,1.612,1.077,2.967,1.909,4.062c0.832,1.097,1.839,1.928,3.023,2.495s2.52,0.851,4.007,0.851
			c1.486,0,2.689-0.183,3.61-0.548c0.919-0.365,1.694-0.769,2.324-1.21c0.63-0.44,1.178-0.844,1.645-1.209
			c0.466-0.365,0.988-0.549,1.568-0.549c0.756,0,1.323,0.29,1.701,0.87l2.684,3.401c-1.033,1.21-2.154,2.225-3.364,3.043
			c-1.209,0.819-2.463,1.474-3.761,1.966c-1.298,0.491-2.64,0.837-4.025,1.039c-1.387,0.201-2.76,0.303-4.12,0.303
			c-2.395,0-4.649-0.448-6.767-1.342c-2.116-0.895-3.963-2.198-5.537-3.913c-1.575-1.713-2.822-3.811-3.742-6.293
			c-0.92-2.481-1.38-5.311-1.38-8.485c0-2.848,0.41-5.487,1.229-7.919c0.819-2.432,2.022-4.536,3.61-6.312
			c1.587-1.776,3.553-3.169,5.896-4.177s5.039-1.512,8.089-1.512c2.897,0,5.437,0.466,7.616,1.398s4.139,2.268,5.878,4.007
			L285.361,207.957z"/>
		<path fill="#0A8CCC" d="M306.414,199.15c2.444,0,4.693,0.391,6.747,1.171c2.054,0.782,3.824,1.922,5.312,3.421
			c1.486,1.5,2.646,3.34,3.477,5.519c0.832,2.181,1.248,4.669,1.248,7.466c0,0.705-0.032,1.291-0.095,1.758
			c-0.063,0.466-0.177,0.831-0.34,1.096c-0.165,0.265-0.385,0.454-0.662,0.567s-0.63,0.17-1.058,0.17h-23.965
			c0.277,3.981,1.348,6.904,3.213,8.77c1.864,1.864,4.334,2.797,7.408,2.797c1.513,0,2.816-0.176,3.912-0.529
			c1.097-0.353,2.054-0.743,2.873-1.172c0.818-0.428,1.537-0.818,2.154-1.172c0.617-0.353,1.216-0.529,1.796-0.529
			c0.378,0,0.705,0.076,0.982,0.228c0.277,0.15,0.517,0.365,0.719,0.643l2.721,3.401c-1.033,1.21-2.192,2.225-3.478,3.043
			c-1.285,0.819-2.627,1.474-4.025,1.966c-1.398,0.491-2.822,0.837-4.271,1.039c-1.45,0.201-2.854,0.303-4.215,0.303
			c-2.697,0-5.204-0.448-7.522-1.342c-2.318-0.895-4.334-2.218-6.047-3.97c-1.715-1.751-3.062-3.918-4.045-6.501
			s-1.475-5.575-1.475-8.978c0-2.646,0.429-5.134,1.285-7.465c0.856-2.33,2.085-4.359,3.686-6.086
			c1.601-1.726,3.554-3.093,5.859-4.101S303.517,199.15,306.414,199.15z M306.604,205.841c-2.722,0-4.852,0.769-6.388,2.306
			c-1.538,1.537-2.521,3.717-2.948,6.539h17.538c0-1.21-0.164-2.35-0.491-3.421c-0.328-1.071-0.832-2.01-1.512-2.816
			c-0.681-0.806-1.538-1.442-2.57-1.908C309.198,206.073,307.989,205.841,306.604,205.841z"/>
		<path fill="#0A8CCC" d="M357.403,238.536h-4.196c-0.882,0-1.575-0.132-2.079-0.396s-0.882-0.8-1.134-1.606l-0.831-2.76
			c-0.983,0.883-1.947,1.657-2.892,2.324c-0.945,0.668-1.922,1.229-2.93,1.683c-1.008,0.453-2.079,0.794-3.213,1.021
			s-2.395,0.34-3.78,0.34c-1.638,0-3.149-0.221-4.535-0.663c-1.387-0.442-2.577-1.106-3.572-1.991
			c-0.996-0.885-1.771-1.984-2.324-3.299c-0.555-1.315-0.832-2.845-0.832-4.59c0-1.466,0.384-2.914,1.153-4.343
			c0.769-1.428,2.047-2.717,3.836-3.867s4.171-2.105,7.145-2.863c2.973-0.759,6.665-1.139,11.074-1.139v-2.284
			c0-2.615-0.548-4.552-1.644-5.809c-1.097-1.257-2.69-1.886-4.781-1.886c-1.513,0-2.772,0.177-3.78,0.529
			c-1.008,0.354-1.884,0.75-2.627,1.19c-0.744,0.441-1.431,0.838-2.061,1.19c-0.63,0.354-1.322,0.529-2.078,0.529
			c-0.631,0-1.172-0.163-1.626-0.491c-0.453-0.327-0.819-0.73-1.096-1.209l-1.701-2.986c4.46-4.082,9.84-6.124,16.14-6.124
			c2.269,0,4.29,0.373,6.067,1.115c1.776,0.744,3.281,1.776,4.517,3.1c1.234,1.323,2.174,2.904,2.816,4.744s0.964,3.855,0.964,6.048
			V238.536z M339.26,232.715c0.957,0,1.839-0.087,2.646-0.26c0.807-0.174,1.569-0.435,2.287-0.782
			c0.718-0.347,1.411-0.774,2.079-1.283c0.667-0.508,1.342-1.11,2.021-1.805v-6.491c-2.721,0-4.995,0.171-6.822,0.514
			s-3.295,0.781-4.403,1.313c-1.109,0.533-1.896,1.155-2.362,1.866c-0.467,0.71-0.699,1.483-0.699,2.321
			c0,1.65,0.484,2.83,1.455,3.541C336.431,232.36,337.697,232.715,339.26,232.715z"/>
		<path fill="#0A8CCC" d="M362.809,238.536v-38.781h5.708c1.209,0,2.003,0.566,2.381,1.701l0.643,3.062
			c0.781-0.807,1.606-1.537,2.476-2.192c0.87-0.655,1.789-1.222,2.76-1.701c0.97-0.479,2.009-0.844,3.118-1.096
			c1.108-0.252,2.318-0.378,3.629-0.378c2.116,0,3.993,0.358,5.632,1.077c1.638,0.718,3.005,1.726,4.102,3.023
			c1.096,1.298,1.928,2.848,2.494,4.649c0.567,1.802,0.851,3.786,0.851,5.953v24.683h-9.336v-24.683c0-2.368-0.548-4.201-1.645-5.5
			c-1.096-1.297-2.74-1.946-4.933-1.946c-1.613,0-3.125,0.365-4.536,1.097c-1.411,0.73-2.747,1.726-4.007,2.985v28.047H362.809z"/>
	</g>
</g>
</svg>
