<?xml version="1.0" encoding="utf-8"?>
<!-- Generator: Adobe Illustrator 18.1.1, SVG Export Plug-In . SVG Version: 6.00 Build 0)  -->
<svg version="1.1" id="Layer_1" xmlns="http://www.w3.org/2000/svg" xmlns:xlink="http://www.w3.org/1999/xlink" x="0px" y="0px"
	 viewBox="0 0 104.6 33.3" enable-background="new 0 0 104.6 33.3" xml:space="preserve">
<g>
	<polygon fill="#617E39" points="7.2,29.1 7.2,26.8 7.2,26.7 7.2,16.5 7.2,6.5 7.2,4.1 0,8.3 0,24.9 7.2,29.1 7.2,29.1 	"/>
	<polygon fill="#272826" points="28.8,25 28.8,16.6 26.8,17.8 18,22.9 9.2,27.9 7.2,29.1 7.2,29.1 14.4,33.3 	"/>
	<path fill="#272826" d="M48.2,12.2c-3.6,0-6.2,2.7-6.2,6.5c0,3.8,2.6,6.5,6.3,6.5c2.1,0,3.7-0.6,5.1-1.9l0.3-0.3l-1.6-2l-0.4,0.4
		c-0.9,0.9-2.1,1.3-3.3,1.3c-1.8,0-3.1-1-3.5-2.7h9.1l0.1-0.4c0-0.2,0-0.5,0-0.7C54.1,14.9,51.6,12.2,48.2,12.2z M48.2,14.9
		c1.5,0,2.6,0.9,3,2.5H45C45.5,15.8,46.6,14.9,48.2,14.9z"/>
	<path fill="#272826" d="M61.7,12.2c-3.6,0-6.4,2.8-6.4,6.5c0,3.7,2.7,6.5,6.2,6.5c1.4,0,2.7-0.4,3.7-1.2v1h2.8v-6
		C68.1,14,64.6,12.2,61.7,12.2z M65.3,18.7c0,2.2-1.5,3.8-3.6,3.8c-2.1,0-3.6-1.6-3.6-3.8c0-2.2,1.5-3.8,3.6-3.8
		C63.8,15,65.3,16.5,65.3,18.7z"/>
	<path fill="#272826" d="M75.5,12.3c-3.4,0-5.7,2.2-5.7,5.3V25h2.8v-7c0-1.8,1.2-3,3-3c1.8,0,2.8,1.1,2.8,3v7h2.8v-7.6
		C81.3,14.3,79,12.3,75.5,12.3z"/>
	<polygon fill="#272826" points="93.9,12.5 90.2,12.5 85.8,17.1 85.8,17.1 85.8,8.3 82.9,8.3 82.9,25 85.8,25 85.8,19.8 85.8,19.8 
		90.3,25 93.9,25 88.2,18.4 	"/>
	<rect x="94.6" y="12.5" fill="#272826" width="2.8" height="12.5"/>
	<rect x="94.6" y="8.3" fill="#272826" width="2.8" height="2.7"/>
	<path fill="#272826" d="M41.5,22.4l-0.6,0.1c-0.1,0-0.2,0-0.3,0c-1.2,0-1.8-0.7-1.8-2.1V8.3H36v12.1c0,3.1,1.6,4.7,4.4,4.7
		c0.2,0,0.4,0,0.7-0.1l0.4,0V22.4z"/>
	<path fill="#272826" d="M104.6,22.4l-0.6,0.1c-0.1,0-0.2,0-0.3,0c-1.2,0-1.8-0.7-1.8-2.1v-5.3h2.7v-2.6h-2.7V8.3h-2.8v12.1
		c0,3.1,1.6,4.7,4.4,4.7c0.2,0,0.4,0,0.7-0.1l0.4,0V22.4z"/>
	<polygon fill="#93C73F" points="9.3,5.3 18,10.4 26.8,15.5 28.8,16.6 28.8,8.3 14.4,0 7.2,4.1 	"/>
</g>
</svg>
