<?xml version="1.0" encoding="utf-8"?>
<!-- Generator: Adobe Illustrator 16.0.0, SVG Export Plug-In . SVG Version: 6.00 Build 0)  -->
<!DOCTYPE svg PUBLIC "-//W3C//DTD SVG 1.1//EN" "http://www.w3.org/Graphics/SVG/1.1/DTD/svg11.dtd">
<svg version="1.1" id="Artwork" xmlns="http://www.w3.org/2000/svg" xmlns:xlink="http://www.w3.org/1999/xlink" x="0px" y="0px"
	 width="1374.047px" height="283.465px" viewBox="0 0 1374.047 283.465" enable-background="new 0 0 1374.047 283.465"
	 xml:space="preserve">
<path fill="#302F39" d="M1374.035,112.454l-50.121,45.611l50.121,45.893v26.428h-1.637l-74.387-67.533v64.197h-21.566V32.702h21.566
	v121.389l74.055-67.4h1.969V112.454z M401.516,227.05h110.043v-21.715h-87.633V39.083h-22.41V227.05z M587.641,86.978
	c-33.809,0-64.57,27.457-64.57,71.688c0,42.957,28.219,71.436,68.633,71.436c18.047,0,34.82-4.547,49.82-15.477v-23.191
	c-15.758,13.217-33.328,18.805-49.09,18.805c-24.355,0-45.844-15.062-47.82-43.273h102.758c0.254-2.791,0.793-8.807,0.793-11.096
	C648.164,110.62,620.941,86.978,587.641,86.978z M587.855,106.591c19.07,0,38.461,12.348,39.223,41.584h-82.465
	C545.887,125.552,563.199,106.591,587.855,106.591z M949.746,86.978c-18.301,0-31.516,9.664-39.395,23.895
	c-6.617-15.248-18.812-23.895-38.391-23.895c-17.031,0-29.738,9.916-36.602,23.133h-0.512l-2.527-20.336h-17.031V227.05h21.852
	V140.36c0-16.779,10.422-32.539,29.48-32.539c18.566,0,26.699,10.936,26.699,30.758v88.471h21.852v-88.215
	c0-16.016,10.688-31.014,29.246-31.014c18.801,0,26.934,10.936,26.934,30.758v88.471h21.871v-91.516
	C993.223,106.804,979.742,86.978,949.746,86.978z M1081.508,86.978c-32.785,0-63.301,27.711-63.301,71.688
	c0,43.465,30.516,71.436,63.301,71.436c20.59,0,39.914-9.664,50.328-28.734h0.258l2.547,25.684h17.797V89.774h-17.797l-2.547,25.676
	h-0.258C1121.422,96.642,1102.098,86.978,1081.508,86.978z M1085.578,107.313c25.922,0,45.5,20.846,45.5,51.098
	c0,30.244-19.578,51.096-45.5,51.096c-25.422,0-45.5-20.596-45.5-50.842C1040.078,127.905,1060.156,107.313,1085.578,107.313z
	 M1245.637,88.247c-11.957,0-30.004,5.596-39.414,23.391h-0.246l-2.289-21.863h-17.535V227.05h21.852v-79.059
	c0-31.775,25.676-41.623,46.777-37.299V89.011C1251.988,88.503,1249.188,88.247,1245.637,88.247z M787.125,86.69h-1.742
	l-57.367,57.205l-57.25-57.205h-1.742v27.721l44.129,44.16l-44.129,43.863v27.951h1.77l56.961-57.465l57.59,57.465h1.781v-28.168
	l-44.52-44.061l44.52-44.828V86.69z M1334.699,34.646v-1.932h15.27v1.932h-6.496v15.363h-2.301V34.646H1334.699z M1357.703,32.714
	l6.582,14.535l6.617-14.535h3.145v17.295h-2.18V35.597h-0.047l-6.531,14.412h-1.973l-6.531-14.412h-0.055v14.412h-2.168V32.714
	H1357.703z"/>
<polygon fill="#028342" points="283.464,227.984 283.464,0 227.983,0 141.729,86.25 "/>
<polygon fill="#75C044" points="-0.001,55.485 -0.001,283.464 55.477,283.464 141.729,197.215 "/>
<polygon fill="#0A5640" points="55.477,283.464 283.464,283.464 283.464,227.984 197.214,141.732 "/>
<polygon fill="#00B14C" points="227.983,0 -0.001,0 -0.001,55.485 86.245,141.732 "/>
</svg>
