<?xml version="1.0" encoding="utf-8"?>
<!-- Generator: Adobe Illustrator 16.0.0, SVG Export Plug-In . SVG Version: 6.00 Build 0)  -->
<!DOCTYPE svg PUBLIC "-//W3C//DTD SVG 1.1//EN" "http://www.w3.org/Graphics/SVG/1.1/DTD/svg11.dtd">
<svg version="1.1" id="Layer_1" xmlns="http://www.w3.org/2000/svg" xmlns:xlink="http://www.w3.org/1999/xlink" x="0px" y="0px"
	 width="594px" height="145.5px" viewBox="0 0 594 145.5" enable-background="new 0 0 594 145.5" xml:space="preserve">
<g>
	<path fill="#231F20" d="M174.159,42.062v52.076h19.917v6.724h-26.729v-58.8H174.159z"/>
	<path fill="#231F20" d="M200.025,56.289h6.812v31.727c0,6.122,6.034,6.122,6.034,6.122h4.742c6.034,0,6.034-6.122,6.034-6.122
		V56.289h6.812v44.572h-2.76l-6.725-6.724c0,6.724-3.362,6.724-3.362,6.724h-4.742c0,0-12.847,0-12.847-12.846V56.289z"/>
	<path fill="#231F20" d="M269.947,100.861h-6.81V69.135c0-6.121-6.12-6.121-6.12-6.121h-4.657c-6.121,0-6.121,6.121-6.121,6.121
		v31.727h-6.812V56.289h2.846l6.638,6.725c0-6.725,3.449-6.725,3.449-6.725h4.657c0,0,12.93-0.174,12.93,12.586V100.861z"/>
	<path fill="#231F20" d="M306.42,69.048v31.813h-2.846l-6.638-6.724c0,6.724-3.45,6.724-3.45,6.724h-4.656
		c0,0-12.934,0-12.934-12.846c0-12.848,12.934-12.848,12.934-12.848h10.777v-6.12c0-6.034-6.121-6.034-6.121-6.034H278.83v-6.725
		h14.656C293.486,56.289,306.42,56.289,306.42,69.048z M299.607,81.98H288.83c0,0-6.121,0-6.121,6.035
		c0,6.122,6.121,6.122,6.121,6.122h4.656c0,0,6.121,0,6.121-6.122V81.98z"/>
	<path fill="#231F20" d="M324.695,94.138h9.487v6.724h-20.951v-6.724h4.739V56.289h2.675l6.81,6.637c0,0,0-6.637,3.278-6.637h8.103
		v6.725h-8.103c0,0-6.038,0-6.038,6.034V94.138z"/>
	<path fill="#231F20" d="M353.752,42.062v52.076h19.917v6.724H346.94v-58.8H353.752z"/>
	<path fill="#231F20" d="M394.534,94.138v6.724h-16.21v-6.724h4.74V56.289h6.812v37.849H394.534z M389.877,44.131h-6.812V37.32
		h6.812V44.131z"/>
	<path fill="#231F20" d="M432.296,100.861h-6.812V69.135c0-6.121-6.12-6.121-6.12-6.121h-4.657c-6.121,0-6.121,6.121-6.121,6.121
		v31.727h-6.812V56.289h2.847l6.641,6.725c0-6.725,3.446-6.725,3.446-6.725h4.657c0,0,12.932-0.174,12.932,12.586V100.861z"/>
	<path fill="#231F20" d="M439.97,69.048c0,0,0-12.759,12.934-12.759h4.655c0,0,13.018,0,12.93,11.466h-6.982
		c0,0-0.085-4.741-5.947-4.741h-4.655c0,0-6.122,0-6.122,6.034v18.968c0,0,0,6.122,6.122,6.122h4.655c0,0,6.034,0,6.034-4.829h6.812
		c0,0,0,11.553-12.847,11.553h-4.655c0,0-12.934,0-12.934-12.846V69.048z"/>
	<path fill="#231F20" d="M508.252,69.048v18.968c0,0,0,12.846-12.846,12.846h-4.74c0,0-12.847,0-12.847-12.846V69.048
		c0,0,0-12.759,12.847-12.759h4.74C495.406,56.289,508.252,56.289,508.252,69.048z M501.442,69.048c0,0,0-6.034-6.036-6.034h-4.74
		c0,0-6.035,0-6.035,6.034v18.968c0,0,0,6.122,6.035,6.122h4.74c0,0,6.036,0,6.036-6.122V69.048z"/>
	<path fill="#231F20" d="M530.843,94.138v6.724h-16.208v-6.724h4.742V37.32h6.812v56.817H530.843z"/>
	<path fill="#231F20" d="M568.608,100.861h-6.812V69.135c0-6.121-6.121-6.121-6.121-6.121h-4.656c-6.122,0-6.122,6.121-6.122,6.121
		v31.727h-6.812V56.289h2.847l6.638,6.725c0-6.725,3.449-6.725,3.449-6.725h4.656c0,0,12.933-0.174,12.933,12.586V100.861z"/>
</g>
<g>
	<circle fill="#D6E9F8" cx="78.658" cy="71.462" r="54.914"/>
	<g>
		<path fill="#16A8E1" d="M78.117,131.119c-32.896,0-59.659-26.762-59.659-59.657s26.763-59.658,59.659-59.658
			c32.896,0,59.658,26.763,59.658,59.658S111.013,131.119,78.117,131.119z M78.117,13.425c-32.002,0-58.038,26.035-58.038,58.037
			c0,32.001,26.036,58.036,58.038,58.036c32.001,0,58.036-26.035,58.036-58.036C136.153,39.46,110.118,13.425,78.117,13.425z"/>
	</g>
	<g>
		<path fill="none" d="M105.638,33.76c0.36-1.01,1.564-1.095,2.389-1.84c-0.917-0.66-0.619-1.96-1.403-2.425
			c-0.989-0.094-1.557,0.45-2.201,0.761C105.566,31.133,103.763,32.846,105.638,33.76z"/>
		<path fill="none" d="M50.594,115.089c0.074,0.021,0.147,0.044,0.222,0.065c-0.021-0.033-0.037-0.066-0.059-0.1
			C50.701,115.066,50.648,115.077,50.594,115.089z"/>
		<path fill="none" d="M86.38,67.136c-0.502,0.739-0.873,1.398-0.855,2.193c0.359,0.769,0.847,1.294,1.89,1.066
			c0.197-0.182,0.467-0.431,0.891-0.821C87.71,68.468,87.563,67.368,86.38,67.136z"/>
		<path fill="none" d="M71.663,104.59c1.244-0.918,1.078-2.436,2.15-2.943c1.029-0.251,1.386,0.844,2.2,0.842
			c1.105-1.561,2.208-3.116,3.31-4.669c-1.771-1.193-2.134,0.325-2.755,1.306c-0.461-0.506-0.669-1.205-1.398-1.367
			c-1.276-0.008-2.556-0.017-3.741-0.023c-0.794,0.531-1.511,1.012-2.228,1.49c-0.555,1.074-1.17,2.144-0.246,3.4
			c0.219-0.518,0.402-0.959,0.596-1.423C70.704,102.074,71.135,103.373,71.663,104.59z"/>
		<path fill="none" d="M69.082,99.108c-0.093-1.272-0.734-2.341-1.279-3.411c-3.183-1.094-3.183-1.094-4.149-2.779
			c9.88,1.24,18.9,0.463,24.701-2.206c-1.771-1.318-3.674-1.501-5.668-1.401c-3.144,0.156-6.25,0.05-9.416-0.266
			c-3.731-0.371-7.617-0.385-11.152,0.289c-1.601,1.246-2.583,2.543-2.65,4.402c-0.937-0.104-1.661-0.182-2.376-0.26
			c0.668,1.193,1.915,1.951,2.146,2.98C62.485,98.352,65.978,97.945,69.082,99.108z"/>
		<path fill="none" d="M112.574,60.001c-0.307-1.048-1.745-1.687-1.33-3.204c0.059-0.597,0.995,0.06,1.241-0.98
			c0.03-1.161-0.14-2.754,0.473-4.264c0.058-0.142-0.204-0.414-0.305-0.598c-1.004,0.299-2.002,0.598-2.983,0.888
			c-0.647-0.3-0.244-1.317-1.067-1.491c-1.235,0.534-1.067,2.39-2.498,2.747c-0.099-0.333-0.197-0.671-0.312-1.066
			c-1.551,0.222-2.947-0.095-4.14-0.995c-0.922-0.345-1.49,1.292-2.462,0.394c0.008-0.367,0.233-0.794-0.448-0.872
			c-0.719,0.441-1.491,0.919-2.448,1.509c-1.974-1.173-4.622-0.018-7.051-2.15c1.936-0.082,3.362-0.108,4.785-0.212
			c1.179-0.087,2.381-0.147,3.515-0.446c0.733-0.194,1.515-0.738,0.659-1.716c-3.431,0.748-3.431,0.748-6.165-0.409
			c-3.538,1.423-7.176,2.569-8.758,6.463c0.749,0.73,0.229,2.371,1.729,2.689c0.908-1.135-0.222-2.812,1.45-3.797
			c0.643,3.001,1.103,5.873,2.453,8.701c-0.977,2.971,0.34,5.428,2.477,7.586c2.197,2.217,4.438,4.391,6.698,6.619
			C111.846,67.205,111.936,60.982,112.574,60.001z M90.458,55.268c1.833-0.432,3.462,0.076,5.587,1.245
			C93.564,56.938,91.995,56.181,90.458,55.268z M106.073,53.26c-0.019-0.043-0.039-0.086-0.06-0.129l0.126,0.082
			C106.115,53.229,106.099,53.244,106.073,53.26z"/>
		<path d="M106.073,53.26c0.025-0.016,0.042-0.031,0.066-0.047l-0.126-0.082C106.034,53.174,106.055,53.217,106.073,53.26z"/>
		<g>
			<path fill="#8DC5EC" d="M71.165,41.536c-1.437-0.796-2.579-2.117-4.405-2.168c0.129-0.871,0.226-1.505,0.397-2.67
				c-1.625,0.5-2.87,0.977-4.175,0.626c-4.828-1.297-9.663-0.123-14.463,0.123c-3.203,0.165-6.225,1.506-6.149,5.719
				c0.007,0.437-0.438,0.882-0.604,1.197c0.277,0.781,1.117,1.096,0.743,2.039c0.053,1.228-1.993,1.679-1.673,2.725
				c0.486,1.092,1.033,1.115,1.529,1.28c0.33,0.109,0.945-0.25,1.016,0.454c-0.641,0.428-1.432,0.713-1.111,1.832
				c3.605-0.855,6.877-2.428,10.461-2.966c1.11,0.602,1.997,1.605,3.472,1.675c1.367,0.066,2.202-1.158,3.5-1.418
				c0.068,0.693,0.108,1.073,0.141,1.414c-1.724,1.976-4.304,1.229-6.656,1.998c3.344,1.509,5.964-0.406,8.446-0.556
				c0.651-0.684-0.157-1.372,0.915-1.684c1.908,0.072,3.91-0.39,5.706-1.917c0.476-2.038,2.292-3.832,1.323-6.089
				C70.391,42.569,70.968,42.231,71.165,41.536z"/>
			<path fill="#8DC5EC" d="M55.955,82.631c-1.354,0.721-2.065,2.092-2.607,3.572c1.89-1.561,4.645-1.88,5.704-4.5
				c1.29-3.197,3.421-5.91,5.563-8.945c-0.746-0.244-0.07-1.479-1.449-1.465c-1.431,2.209-2.885,4.479-5.379,5.912
				C58.647,79.605,58.243,81.414,55.955,82.631z"/>
			<path fill="#8DC5EC" d="M90.458,55.268c1.537,0.913,3.106,1.671,5.587,1.245C93.92,55.344,92.291,54.836,90.458,55.268z"/>
			<path fill="#8DC5EC" d="M132.676,62.057c-0.264-1.463-0.603-2.892-0.974-4.304c0.025-0.081,0.052-0.161,0.076-0.242
				c-3.336-12.738-11.137-23.662-21.625-31.021c-0.009,0.062-0.018,0.126-0.027,0.185c-2.266-1.596-4.638-3.036-7.12-4.273
				c1.804,1.731,3.775,3.606,5.712,5.601c-1.308,0.136-2.568,0.268-3.722,0.388c-0.642,0.575-0.654,1.218-0.717,1.838
				c-0.583,0.232-1.243,0.37-1.698,0.754c-1.415,1.195-2.906,1.786-4.427,0.926c-4.194,2.161-8.499,2.486-12.902,3.25
				c-2.297,2.124-4.866,4.149-8.452,5.048c-0.191,1.302-0.262,2.883-1.826,3.583c1.241,1.609,3.02,0.642,4.188,1.519
				c1.372,4.32,1.658,8.773,1.847,12.574c0.388,1.525,1.346,1.643,1.778,2.151c0.147,2.783,0.381,5.534-0.308,8.134
				c-0.624,2.361-2.552,3.869-5.025,3.683c-3.689-0.278-6.663,1.729-10.329,2.407c1.714,3.283,5.226,1.188,6.485,2.443
				c1.605,1.381,1.537,2.709,2.125,3.699c1.324,0.508,0.708-0.6,0.901-1.024c0.86-0.493,1.747-0.434,2.772-0.208
				c0.852,1.766,1.686,3.551,3.5,5.131c3.364-0.297,5.746-3.328,9.409-3.743c-0.888-1.425-1.635-0.116-2.186-0.933
				c0.318-0.609,0.66-1.27,1.027-1.974c-0.643-1.349-2.221-2.428-1.28-4.242c0.699-0.616,1.497-0.687,2.019,0.11
				c1.905,2.903,4.382,5.232,7.209,7.307c-0.225,0.561-0.412,1.031-0.645,1.611c-1.125-0.16-2.214-0.004-3.086,0.529
				c-0.676-0.736,0.325-1.508-0.86-2.156c-2.202-0.004-3.67,1.502-4.817,3.52c-0.837-0.523-1.724-0.726-2.685-0.424
				c-0.608,1.168,0.497,1.59,1.039,2.342c-2.434,0.637-4.736,0.303-7.065-0.648c-1.187,0.746-2.391,1.504-3.447,2.168
				c-0.877,0.121-1.502,0-2.033-0.476c-0.499-0.45-1.05-0.799-1.755-0.798c-4.427,0.337-8.644,2.487-13.221,1.533
				c-1.15,0.586-2.301,1.169-3.442,1.749c-0.892,1.182-0.901,2.399-0.197,3.651c-1.029,0.821-1.56,2.401-3.511,2.145
				c-0.186-2.539-1.608-4.88-1.291-7.51c-0.5-0.438-0.888-0.778-1.274-1.119c1.709-3.02,1.395-5.645-0.938-7.345
				c-0.27,1.146,0.676,2.312-0.134,3.434c-1.036,0.498-1.615-0.385-2.321-0.818c-0.305-0.644,0.177-0.972,0.51-1.413
				c-0.05-0.725-0.822-0.277-1.048-0.564c-0.816-0.633-0.809-1.431-0.543-2.197c0.328-0.949-1.545-0.93-0.729-1.908
				c-0.571-0.619-1.038-0.145-1.515-0.035c-0.674-0.31-0.351-0.846-0.297-1.336c-0.661-0.477-1.245-1.008-1.777-1.58
				c-0.603-0.275-1.188-0.545-1.697-0.836c-1.93-1.115-3.497-2.867-4.978-4.494c-2.504-2.746-4.396-5.655-6.068-8.847
				c0.019,1.542,0.147,3.05,0.272,4.527c3.283,4.132,3.68,9.737,7.454,12.915c0.04,0.96,0.159,1.387,0.051,1.742
				c-0.221,0.747-0.564,1.455-0.862,2.179c0.866,0.771,1.759-0.339,2.648,0.026c1.775,1.32,1.653,3.477,2.304,5.311
				c-0.097,0.85-0.916,1.162-1.538,1.695c0.643,0.266,1.117,0.461,1.631,0.672c-1.057,0.949-2.451,1.613-2.615,3.223
				c0.062,0.594,0.326,1.006,0.902,1.162c0.5,0.139,1.065,0.143,1.529,1.076c0.083,0.221,0.254,0.85-0.102,1.541
				c-0.384-0.087-0.773-0.175-1.264-0.283c-0.028,1.871,3.082,2.482,1.879,4.631c0.267,1.102,1.467,0.648,2.134,1.734
				c0.49,1.301,1.134,3.015,1.891,5.027c-0.114,0.578-0.287,1.459-0.43,2.162c0.885,2.228,2.432,3.944,3.149,6.029
				c-2.351-0.796-4.644-1.74-6.855-2.843c3.144,3.019,6.635,5.643,10.383,7.833c0,0.006,0,0.012,0,0.018
				c0.439,0.246,0.882,0.486,1.329,0.721c10.519,5.763,22.954,8.119,35.627,5.83C118.434,120.578,138.081,91.979,132.676,62.057z
				 M106.623,29.495c0.784,0.464,0.486,1.765,1.403,2.425c-0.824,0.745-2.028,0.83-2.389,1.84c-1.875-0.914-0.071-2.626-1.216-3.503
				C105.066,29.945,105.634,29.401,106.623,29.495z M87.414,70.396c-1.043,0.228-1.53-0.298-1.89-1.066
				c-0.018-0.795,0.354-1.454,0.855-2.193c1.184,0.232,1.33,1.332,1.925,2.438C87.881,69.965,87.611,70.214,87.414,70.396z
				 M98.087,75.396c-2.26-2.229-4.501-4.402-6.698-6.619c-2.137-2.158-3.453-4.615-2.477-7.586c-1.351-2.828-1.811-5.7-2.453-8.701
				c-1.672,0.984-0.542,2.662-1.45,3.797c-1.5-0.318-0.979-1.959-1.729-2.689c1.582-3.894,5.22-5.04,8.758-6.463
				c2.734,1.157,2.734,1.157,6.165,0.409c0.855,0.978,0.074,1.521-0.659,1.716c-1.134,0.299-2.336,0.359-3.515,0.446
				c-1.423,0.104-2.85,0.13-4.785,0.212c2.429,2.132,5.077,0.977,7.051,2.15c0.957-0.59,1.729-1.068,2.448-1.509
				c0.682,0.078,0.456,0.504,0.448,0.872c0.972,0.898,1.54-0.738,2.462-0.394c1.192,0.9,2.589,1.217,4.14,0.995
				c0.114,0.396,0.213,0.733,0.312,1.066c1.431-0.356,1.263-2.213,2.498-2.747c0.823,0.174,0.42,1.191,1.067,1.491
				c0.981-0.29,1.979-0.589,2.983-0.888c0.101,0.184,0.362,0.456,0.305,0.598c-0.612,1.51-0.442,3.103-0.473,4.264
				c-0.246,1.04-1.183,0.384-1.241,0.98c-0.415,1.518,1.023,2.156,1.33,3.204C111.936,60.982,111.846,67.205,98.087,75.396z
				 M69.201,99.225c0.717-0.479,1.434-0.959,2.228-1.49c1.186,0.007,2.465,0.016,3.741,0.023c0.729,0.162,0.938,0.861,1.398,1.367
				c0.621-0.98,0.984-2.499,2.755-1.306c-1.102,1.553-2.204,3.108-3.31,4.669c-0.814,0.002-1.171-1.093-2.2-0.842
				c-1.072,0.508-0.906,2.025-2.15,2.943c-0.528-1.217-0.959-2.516-2.112-3.388c-0.193,0.464-0.377,0.905-0.596,1.423
				C68.031,101.368,68.646,100.299,69.201,99.225z M59.468,93.736c0.067-1.859,1.05-3.156,2.65-4.402
				c3.535-0.674,7.421-0.66,11.152-0.289c3.166,0.315,6.272,0.422,9.416,0.266c1.994-0.1,3.896,0.083,5.668,1.401
				c-5.801,2.669-14.821,3.446-24.701,2.206c0.967,1.686,0.967,1.686,4.149,2.779c0.545,1.07,1.187,2.139,1.279,3.411
				c-3.104-1.163-6.597-0.757-9.845-2.651c-0.23-1.029-1.478-1.787-2.146-2.98C57.807,93.555,58.531,93.633,59.468,93.736z
				 M50.594,115.089c0.055-0.012,0.107-0.022,0.163-0.034c0.021,0.033,0.038,0.066,0.059,0.1
				C50.741,115.133,50.667,115.11,50.594,115.089z"/>
		</g>
	</g>
</g>
</svg>
