<?xml version="1.0" encoding="utf-8"?>
<!-- Generator: Adobe Illustrator 16.0.0, SVG Export Plug-In . SVG Version: 6.00 Build 0)  -->
<!DOCTYPE svg PUBLIC "-//W3C//DTD SVG 1.1//EN" "http://www.w3.org/Graphics/SVG/1.1/DTD/svg11.dtd">
<svg version="1.1" xmlns="http://www.w3.org/2000/svg" xmlns:xlink="http://www.w3.org/1999/xlink" x="0px" y="0px"
	 width="202.996px" height="33.805px" viewBox="0 0 202.996 33.805" enable-background="new 0 0 202.996 33.805"
	 xml:space="preserve">
<g id="Layer_1">
	<g>
		<g>
			<path d="M22.725,0.011c-0.001,0.556-0.001,1.931,0,2.196c0.161,0.001,0.611,0,0.863-0.001c0.855-0.003,2.064-0.002,2.541,0.465
				c0.927,0.986-0.281,1.885-1.392,3.387c-1.751,2.328-0.664,3.85,0.489,3.033c0.669-0.49,2.112-1.564,2.816-1.921
				c1.468-0.696,2.41,1.164,0.881,3.183c-0.604,0.828-1.763,1.874-2.511,2.979c-0.92,1.33-0.489,3.117,1.287,1.79
				c2.048-1.541,2.772,0.846,0.609,3.093c-1.986,2.128-3.193,3.663-2.61,5.52c0.217,0.677,0.475,1.419,0.698,2.067
				c0.03,0.071,0.08,0.117,0.08,0.117l-0.052,0.086c0,0-0.047-0.025-0.186-0.027h-1.243c-0.068-0.186-0.719-1.947-1.415-3.839
				c-0.222-0.563-0.501-0.962-1.862-1.37c-0.292-0.088-0.537-0.16-0.675-0.201c-0.23-0.061-0.352-0.027-0.518,0.086
				c-0.318,0.235-0.727,0.536-0.875,0.646c-0.817,0.602-1.221,0.791-1.573,0.701c-0.271-0.074-0.412-0.278-0.403-0.627
				c0-0.033,0-0.08-0.002-0.096c0.392-0.635,0.698-1.318,0.915-2.043c0.217-0.726,0.335-1.464,0.357-2.208
				c0.011-0.015,0.033-0.05,0.05-0.074c0.185-0.296,0.414-0.39,0.683-0.304c0.344,0.12,0.577,0.499,0.931,1.45
				c0.061,0.168,0.231,0.626,0.366,0.993c0.085,0.218,0.17,0.316,0.446,0.398l0,0c0.238,0.07,0.679,0.203,1.154,0.346
				c0.05,0.015,0.091,0.061,0.107,0.076c0.016-0.017,0.085-0.086,0.085-0.086s-0.057-0.051-0.082-0.116
				c-0.485-1.316-0.862-2.34-0.894-2.428c-0.574-1.523-0.96-2.144-2.031-2.934c-1.043-0.741-2.643-1.319-3.549-1.843
				c-2.761-1.569-2.292-3.837-0.724-3.751c0.604,0.008,1.973,0.521,2.948,0.897c1.69,0.625,1.743-1.461-0.446-3.066
				c-2.783-2.042-3.313-3.104-2.662-3.936c0.347-0.443,1.301-0.447,2.247-0.439c0.17-0.002,0.646-0.002,0.764,0
				c0-0.548,0.004-1.597,0.005-2.202L0.002,0L0,2.207C0.454,2.2,0.817,2.218,1.357,2.26c1.538,0.135,2.697,0.88,3.919,4.02
				c1.072,2.816,9.886,25.147,10.791,27.524c0.245-0.005,8.935,0.001,8.935,0.001c0.771-1.968,9.379-24.08,10.777-27.616
				c1.248-3.157,2.58-3.772,4.063-3.894c0.352-0.029,0.789-0.045,1.155-0.042L41,0.021L22.725,0.011z M16.157,20.69
				c-1.169-0.418-1.613-0.779-1.75-1.99c-0.037-0.304-0.046-0.726-0.046-0.726s0.239-0.347,0.436-0.581
				c0.778-0.937,1.35-0.994,2.556-0.703c0.138,0.03,0.643,0.14,1.048,0.228c-0.014,0.726-0.126,1.45-0.337,2.158
				c-0.213,0.711-0.518,1.379-0.907,1.996C16.771,20.925,16.288,20.74,16.157,20.69z"/>
		</g>
	</g>
</g>
<g id="Layer_2">
	<path d="M66.802,2.15l-0.693,0.03L65.9,2.191c-0.004,0-0.068,0.006-0.068,0.006c-0.298,0.015-0.605,0.037-0.887,0.037
		c-0.412,0-0.799-0.022-1.176-0.039l-0.066-0.004c-0.432-0.023-0.736-0.038-1.022-0.038h-0.168V3.07h0.498
		c0.901,0,1.085,0.185,1.085,0.482c0,0.187-0.044,0.518-0.242,1.031c-0.116,0.289-2.492,6.317-3.071,7.785
		c-0.596-1.526-3.154-8.04-3.278-8.352c-0.101-0.272-0.164-0.509-0.164-0.564c0-0.146,0.233-0.383,0.854-0.383h0.611V2.15h-0.163
		l-0.858,0.03l-0.238,0.009L57.292,2.2c-0.528,0.012-1.079,0.034-1.542,0.034c-0.498,0-1.008-0.022-1.495-0.039
		c-0.463-0.023-0.998-0.042-1.514-0.042h-0.166V3.07h0.361c0.759,0,1.135,0.139,1.489,1.011L59.5,16.417h0.938l0.044-0.089
		c0.141-0.315,0.776-1.865,2.02-4.886c1.009-2.458,3.11-7.578,3.215-7.771c0.279-0.555,0.581-0.602,0.891-0.602h0.362V2.15h-0.138
		H66.802z"/>
	<path d="M79.528,14.522c-0.203-0.466-0.403-1.034-0.586-1.586l-0.135-0.394c0,0,0.005,0.024,0.005,0.034
		c-0.017-0.078-0.269-0.776-3.518-9.926c0-0.003-0.182-0.483-0.182-0.483c-0.053-0.154-0.158-0.143-0.279-0.131l-0.038,0.005
		L74.73,2.046c0.003,0-0.216,0.02-0.216,0.02l-0.469,0.037c-0.001,0-0.032,0-0.032,0c-0.291,0.012-0.483,0.021-0.918-0.009h-0.138
		l-0.031,0.131c-0.117,0.459-0.395,1.207-0.635,1.865l-0.105,0.288l-0.255,0.697c0,0.001-3.125,8.971-3.125,8.971
		c-0.26,0.729-0.834,1.159-1.54,1.159h-0.282v0.932l0.189-0.019c-0.001,0,0.236-0.012,0.236-0.012
		c0.608-0.027,1.232-0.064,1.847-0.064c0.68,0,1.411,0.037,2.046,0.064c0,0,0.308,0.012,0.309,0.012
		c0,0.002,0.173,0.022,0.173,0.022v-0.911h-0.378c-0.392,0-1.3-0.054-1.3-0.539c0-0.21,0.101-0.508,0.222-0.854l0.202-0.626
		c0,0,0.467-1.515,0.588-1.913c0.186,0,4.01,0,4.192,0c0.055,0.169,0.726,2.151,0.726,2.151c0.185,0.555,0.381,1.121,0.381,1.355
		c0,0.393-0.725,0.425-0.946,0.425h-0.384v0.897l0.479-0.019c0.813-0.027,1.654-0.066,2.518-0.066c0.827,0,1.615,0.037,2.388,0.065
		l0.285,0.011c0,0.002,0.19,0.014,0.19,0.014v-0.927h-0.284C80.071,15.205,79.732,15.003,79.528,14.522z M74.791,9.87
		c-0.315,0-2.876,0-3.196,0c0.252-0.764,1.246-3.791,1.603-4.885C73.322,5.348,74.683,9.541,74.791,9.87z"/>
	<path d="M97.909,2.195L97.75,2.2c-0.418,0.017-0.79,0.034-1.179,0.034c-0.457,0-0.938-0.024-1.356-0.039
		c-0.416-0.023-0.899-0.042-1.376-0.042h-0.168V3.07h0.597c0.555,0,1.483,0.216,1.483,1.673c0.002,0.064,0.041,5.52,0.048,6.968
		c-1.368-1.541-8.366-9.432-8.446-9.511l-0.039-0.05H87.24c-0.305,0-0.609,0.02-0.879,0.039l-0.104,0.006L85.5,2.219l-0.93-0.023
		l-0.132-0.006c-0.308-0.019-0.678-0.036-1.076-0.036h-0.167l0.019,0.851l0.411,0.021c0.371-0.002,0.739,0.156,1.017,0.431
		c0.308,0.31,0.478,0.74,0.478,1.211l-0.056,8.223c0,1.481-0.246,2.341-1.473,2.341l-0.446,0.02v0.871h0.172
		c0.431,0,0.858-0.018,1.271-0.032h0.035c0.501-0.029,0.913-0.046,1.287-0.046c0.365,0,0.761,0.017,1.252,0.046h0.03l1.239,0.032
		h0.164v-0.915h-0.499c-1.253-0.008-1.617-0.479-1.617-2.121c0,0-0.04-6.062-0.047-7.608c0.452,0.503,9.812,10.941,9.812,10.941
		h1.007l-0.024-0.189c-0.103-0.63-0.114-1.339-0.114-1.95l0.055-8.889c0-2.318,0.856-2.318,1.481-2.318
		c0.005,0,0.456-0.019,0.456-0.019V2.168h-0.163L97.909,2.195z"/>
	<path d="M114.66,4.054L114.66,4.054c-1.402-1.246-3.402-1.903-5.783-1.903l-1.18,0.037l-0.088,0.002
		c-0.578,0.021-1.203,0.045-1.879,0.045c-0.717,0-1.463-0.03-2.105-0.053c-0.002,0-0.383-0.012-0.383-0.012l-0.637-0.017h-0.166
		V3.07h0.439c0.812,0,1.279,0.155,1.279,0.95V14.26c0,0.887-0.535,0.96-1.182,0.96l-0.441,0.015v0.886h0.168l0.889-0.023
		l0.229-0.006c0.574-0.021,1.289-0.049,2.008-0.049c1.602,0,3.125,0.059,3.551,0.076c1.932,0.12,3.783-0.556,5.207-1.889
		c1.402-1.327,2.207-3.197,2.207-5.135C116.793,7.032,116.059,5.289,114.66,4.054z M113.732,9.469c0,1.501-0.443,2.851-1.24,3.819
		c-0.869,1.049-2.129,1.606-3.639,1.606c-1.32,0-1.863-0.125-1.863-1.381c0,0,0-9.853,0-10.094c0.078-0.01,0.154-0.015,0.154-0.015
		c0.332-0.036,0.67-0.069,1.01-0.069c1.754,0,3.045,0.386,3.934,1.177C113.193,5.494,113.732,7.119,113.732,9.469z"/>
	<path d="M130.459,12.738c-0.281,1.056-0.588,1.567-1.092,1.828c-0.518,0.256-1.268,0.256-2.404,0.256h-0.047
		c-1.371,0-2.213-0.051-2.213-1.104c0,0,0-4.023,0-4.279c0.24,0,2.242,0,2.242,0c1.18,0,1.27,0.486,1.391,1.673
		c0,0.006,0.023,0.187,0.023,0.187l0.873-0.182l-0.012-0.146c-0.041-0.78-0.061-1.412-0.061-2.103c0-0.764,0.021-1.313,0.061-2.06
		l0.012-0.18l-0.828,0.021l-0.016,0.14c-0.119,1.042-0.447,1.344-1.465,1.344c0,0-1.98,0-2.221,0c0-0.25,0-4.428,0-4.678
		c0.242,0,2.551,0,2.551,0c1.947,0,2.086,0.643,2.182,1.875c0.002,0.005,0.021,0.197,0.021,0.197l0.861-0.229l-0.014-0.139
		c-0.053-0.771-0.004-1.771,0.031-2.575l0.023-0.435h-0.145h-0.027c-0.629,0-1.424,0.02-2.25,0.041l-0.172,0.004
		c-0.873,0.017-1.775,0.039-2.582,0.039c-0.912,0-2.006-0.029-2.797-0.043c-0.908-0.023-1.582-0.038-2.068-0.038h-0.17V3.07h0.445
		c0.809,0,1.277,0.155,1.277,0.95V14.26c0,0.831-0.42,0.995-1.146,0.995h-0.439v0.865h0.162l1.992-0.028
		c0.967-0.022,2.088-0.05,3.076-0.05c0.955,0,2.043,0.027,2.986,0.05l0.174,0.005l1.982,0.023h0.145l0.021-0.139
		c0,0.002,0.158-1.073,0.158-1.073c0.092-0.663,0.182-1.289,0.346-1.955c0-0.007,0.035-0.164,0.035-0.164l-0.869-0.215
		L130.459,12.738z"/>
	<path d="M159.859,8.49c1.35-0.407,2.695-1.276,2.695-3.104c0-0.97-0.357-1.747-1.061-2.3c-0.785-0.616-1.98-0.937-3.559-0.937
		c-0.42,0-0.885,0.018-1.4,0.041l-0.096,0.004c-0.531,0.017-1.078,0.039-1.625,0.039c-0.549,0-1.088-0.022-1.607-0.039l-0.094-0.004
		c-0.574-0.023-0.992-0.038-1.346-0.038h-0.164V3.07h0.43c0.818,0,1.285,0.155,1.285,0.95V14.26c0,0.791-0.467,0.945-1.285,0.945
		h-0.43v0.915h0.164l1.307-0.023l0.123-0.005c0.629-0.022,1.365-0.05,2.025-0.05c0.65,0,1.289,0.024,1.885,0.049l1.531,0.029
		c1.268,0,2.459-0.422,3.365-1.179c0.91-0.768,1.41-1.777,1.41-2.848c0-0.953-0.348-1.795-1.01-2.435
		C161.781,9.052,160.859,8.633,159.859,8.49z M156.951,8.084c0,0-0.547-0.016-0.807-0.019c0-0.246,0-4.518,0-4.768
		c0.213,0,1.01,0,1.01,0c1.213,0,2.449,0.295,2.449,2.46C159.604,7.325,158.738,8.084,156.951,8.084z M160.465,12.165
		c0,1.621-1.146,2.8-2.725,2.8c-1.385,0-1.596-0.193-1.596-1.492c0,0,0-4.007,0-4.265c0.217,0.003,1.084,0.014,1.084,0.014
		c0.973,0,1.777,0.247,2.328,0.706C160.16,10.43,160.465,11.188,160.465,12.165z"/>
	<path d="M173.439,2.15l-1.121,0.03l-0.354,0.011l-0.1,0.006c-0.492,0.015-0.994,0.037-1.459,0.037c-0.473,0-0.99-0.022-1.494-0.037
		l-0.102-0.006c-0.564-0.023-0.975-0.038-1.295-0.038h-0.166V3.07h0.441c0.811,0,1.277,0.155,1.277,0.95V14.26
		c0,0.791-0.467,0.945-1.277,0.945h-0.441v0.915h0.166l1.283-0.029c0.492-0.021,1.062-0.049,1.588-0.049
		c0.49,0,1.035,0.024,1.551,0.046l0.057,0.003l1.445,0.029h0.166v-0.915h-0.439c-0.812,0-1.279-0.154-1.279-0.945V4.021
		c0-0.795,0.467-0.95,1.279-0.95h0.439V2.15h-0.139H173.439z"/>
	<path d="M188.35,12.66c-0.121,0.44-0.24,0.769-0.529,1.165c-0.363,0.494-0.998,0.843-1.717,0.921
		c-0.818,0.094-1.445,0.103-2.314,0.039c-0.707-0.088-1.016-0.365-1.016-0.926V3.96c0-0.89,0.436-0.89,1.162-0.89h0.654V2.15h-0.135
		h-0.027c-0.484,0-0.967,0.021-1.432,0.042l-0.061,0.003c-0.48,0.017-0.982,0.039-1.479,0.039c-0.516,0-1.035-0.022-1.539-0.039
		c-0.467-0.023-1.012-0.042-1.551-0.042h-0.164V3.07h0.438c0.828,0,1.299,0.155,1.299,0.95V14.06c0,1.058-0.613,1.146-1.299,1.146
		h-0.438v0.915h0.164l2.523-0.032h0.064c1.012-0.029,1.826-0.046,2.574-0.046c0.74,0,1.5,0.015,2.453,0.046c0.002,0,0.07,0,0.07,0
		c0.77,0.015,1.564,0.032,2.4,0.032h0.137l0.02-0.134c0.16-0.731,0.285-1.404,0.416-2.118l0.252-1.323h-0.891L188.35,12.66z"/>
	<path d="M146.957,14.121c-0.002-0.006-2.506-3.412-2.506-3.412c-0.424-0.56-0.787-0.923-1.096-1.093
		c1.34-0.604,2.785-1.915,2.785-3.801c0-1.334-0.492-2.323-1.479-2.928c-0.793-0.485-1.914-0.737-3.338-0.737l-1.166,0.03
		l-0.303,0.011c-0.002,0-0.092,0.004-0.092,0.004c-0.494,0.017-1.01,0.039-1.58,0.039c-0.656,0-1.33-0.024-1.965-0.047l-0.199-0.007
		l-0.863-0.027h-0.164V3.07h0.514c0.668,0,1.221,0.098,1.221,1.323v9.923c0,0.849-0.863,0.913-1.127,0.913l-0.525,0.02v0.871h0.17
		c0.463,0,0.896-0.017,1.41-0.037c0.418-0.02,0.879-0.041,1.332-0.041c0.484,0,1.02,0.017,1.678,0.046h0.043l1.643,0.032h0.166
		v-0.915h-0.52c-0.893,0-1.434-0.068-1.434-1.395c0,0,0-3.476,0-3.736c0.207,0.01,0.885,0.027,0.885,0.027
		c0.279,0.017,0.494,0.083,0.688,0.372c0.467,0.711,1.557,2.365,3.23,4.562c0.785,1.068,1.787,1.068,2.518,1.068l2.209,0.005v-0.874
		l-0.154-0.015C147.904,15.166,147.574,15.051,146.957,14.121z M143.191,5.937c0,1.041-0.254,1.817-0.748,2.311
		c-0.467,0.458-1.154,0.69-2.062,0.68c-0.008,0-0.629-0.048-0.818-0.057c0-0.24,0-5.27,0-5.499c0.051-0.004,0.105-0.008,0.105-0.008
		c0.193-0.026,0.436-0.052,0.838-0.052C142.164,3.312,143.191,4.317,143.191,5.937z"/>
	<path d="M202.807,2.103l-0.438,0.031l-0.059,0.003l-0.867,0.014h-9.389c-0.463,0-0.754-0.017-1.037-0.035
		c0,0-0.061-0.004-0.064-0.004l-0.029-0.004c-0.008,0-0.738-0.067-0.738-0.067v0.149v0.03c0,0.446-0.012,0.65-0.074,1.176
		l-0.01,0.121c0-0.006-0.027,0.206-0.027,0.206l-0.178,1.427l-0.02,0.151h0.908l0.035-0.122c0.295-1.436,0.33-1.62,1.666-1.631
		c0,0,2.383,0,2.629,0c0,0.266,0,10.182,0,10.182c0,1.42-0.447,1.476-1.457,1.476h-0.533v0.915h0.162l1.32-0.028
		c0.617-0.022,1.336-0.05,1.982-0.05c0.553,0,1.213,0.027,1.791,0.046l0.041,0.003l1.352,0.029h0.166v-0.915h-0.537
		c-0.852,0-1.457-0.106-1.457-1.515c0,0,0-9.877,0-10.143c0.25,0,2.717,0,2.717,0c1.209,0.011,1.268,1.083,1.299,1.66
		c0,0.003,0.012,0.206,0.012,0.206l0.895-0.226V5.06l0.033-1.556c0.016-0.518,0.057-0.986,0.074-1.225
		c0-0.002,0.021-0.197,0.021-0.197l-0.201,0.021H202.807z"/>
</g>
<g id="Layer_3">
	<path d="M56.056,31.025c0.376,0.265,0.947,0.52,1.498,0.52c0.826,0,1.397-0.498,1.397-1.283c0-1.795-3.11-1.062-3.11-3.529
		c0-1.091,0.887-1.854,2.141-1.854c0.694,0,1.316,0.215,1.875,0.55l-0.337,0.644c-0.417-0.274-0.835-0.521-1.497-0.521
		c-0.613,0-1.305,0.388-1.305,1.235c0,1.549,3.171,1.192,3.171,3.402c0,1.053-0.735,2.029-2.286,2.029
		c-0.764,0-1.344-0.193-1.936-0.56L56.056,31.025z"/>
	<path d="M67.269,26.141c-0.551-0.387-1.142-0.529-1.824-0.529c-1.642,0-2.805,1.307-2.805,2.937s1.163,2.937,2.805,2.937
		c0.621,0,1.263-0.235,1.814-0.553l0.345,0.623c-0.63,0.367-1.416,0.662-2.16,0.662c-2.091,0-3.742-1.363-3.742-3.669
		c0-2.161,1.651-3.67,3.742-3.67c0.835,0,1.508,0.203,2.19,0.57L67.269,26.141z"/>
	<path d="M70.135,25.02h0.886L70.99,28.15h3.802l0.041-3.131h0.888l-0.062,7.055h-0.887l0.029-3.189H71l-0.04,3.189h-0.886
		L70.135,25.02z"/>
	<path d="M78.738,28.548c0-1.63,1.162-2.937,2.803-2.937c1.642,0,2.804,1.307,2.804,2.937s-1.162,2.937-2.804,2.937
		C79.9,31.484,78.738,30.178,78.738,28.548z M77.799,28.548c0,2.306,1.651,3.669,3.742,3.669c2.089,0,3.741-1.508,3.741-3.669
		c0-2.305-1.652-3.67-3.741-3.67C79.451,24.878,77.799,26.387,77.799,28.548z"/>
	<path d="M88.054,28.548c0-1.63,1.163-2.937,2.805-2.937c1.64,0,2.803,1.307,2.803,2.937s-1.163,2.937-2.803,2.937
		C89.217,31.484,88.054,30.178,88.054,28.548z M87.118,28.548c0,2.306,1.65,3.669,3.741,3.669c2.09,0,3.74-1.508,3.74-3.669
		c0-2.305-1.65-3.67-3.74-3.67C88.768,24.878,87.118,26.387,87.118,28.548z"/>
	<path d="M96.68,32.074l0.061-7.055h0.876l-0.06,6.32h3.005v0.734H96.68z"/>
	<path d="M105.952,28.548c0-1.63,1.162-2.937,2.803-2.937c1.643,0,2.805,1.307,2.805,2.937s-1.162,2.937-2.805,2.937
		C107.114,31.484,105.952,30.178,105.952,28.548z M105.015,28.548c0,2.306,1.651,3.669,3.74,3.669c2.09,0,3.742-1.508,3.742-3.669
		c0-2.305-1.652-3.67-3.742-3.67C106.666,24.878,105.015,26.387,105.015,28.548z"/>
	<path d="M114.996,25.02h3.771v0.734h-2.896l-0.02,2.396h2.824v0.734h-2.814l-0.039,3.189h-0.887L114.996,25.02z"/>
	<path d="M124.544,25.02h3.627v0.734h-2.762l-0.02,2.396h2.689v0.734h-2.68l-0.021,2.455h2.834v0.734h-3.73L124.544,25.02z"/>
	<path d="M131.169,25.193l0.733-0.315l3.905,5.718h0.021l0.04-5.576h0.888l-0.062,6.912l-0.764,0.285l-3.875-5.769h-0.02
		l-0.042,5.626h-0.887L131.169,25.193z"/>
	<path d="M145.163,28.457l-0.039,3.24c-0.807,0.377-1.652,0.52-2.293,0.52c-2.09,0-3.74-1.363-3.74-3.669
		c0-2.161,1.65-3.67,3.74-3.67c0.744,0,1.518,0.173,2.182,0.499l-0.336,0.694c-0.461-0.265-1.131-0.46-1.846-0.46
		c-1.641,0-2.805,1.307-2.805,2.937s1.164,2.937,2.805,2.937c0.488,0,1.029-0.123,1.416-0.297l0.041-2.73H145.163z"/>
	<path d="M148.376,25.02h0.877l-0.062,7.055h-0.876L148.376,25.02z"/>
	<path d="M152.444,25.193l0.732-0.315l3.906,5.718h0.02l0.041-5.576h0.887l-0.062,6.912l-0.764,0.285l-3.873-5.769h-0.02
		l-0.042,5.626h-0.887L152.444,25.193z"/>
	<path d="M161.13,25.02h3.629v0.734h-2.766l-0.019,2.396h2.691v0.734h-2.682l-0.021,2.455h2.834v0.734h-3.73L161.13,25.02z"/>
	<path d="M167.551,25.02h3.63v0.734h-2.764l-0.02,2.396h2.691v0.734h-2.682l-0.02,2.455h2.833v0.734h-3.73L167.551,25.02z"/>
	<path d="M174.851,25.633h1.05c1.143,0,1.569,0.662,1.569,1.416c0,1.029-0.896,1.336-1.763,1.336h-0.878L174.851,25.633z
		 M173.913,32.074h0.886l0.042-3.018h0.559c0.675,0,0.878,0.41,1.314,0.97l1.665,2.263l0.773-0.469l-1.417-1.875
		c-0.295-0.367-0.692-0.999-1.162-1.092v-0.021c0.988-0.131,1.773-0.805,1.773-1.957c0-1.172-0.906-1.855-2.242-1.855h-2.131
		L173.913,32.074z"/>
	<path d="M181.569,25.02h0.877l-0.062,7.055h-0.878L181.569,25.02z"/>
	<path d="M185.636,25.193l0.735-0.315l3.903,5.718h0.02l0.041-5.576h0.887l-0.062,6.912l-0.764,0.285l-3.875-5.769h-0.02
		l-0.042,5.626h-0.886L185.636,25.193z"/>
	<path d="M199.887,28.457l-0.041,3.24c-0.805,0.377-1.651,0.52-2.291,0.52c-2.093,0-3.741-1.363-3.741-3.669
		c0-2.161,1.648-3.67,3.741-3.67c0.742,0,1.518,0.173,2.179,0.499l-0.334,0.694c-0.46-0.265-1.134-0.46-1.845-0.46
		c-1.644,0-2.806,1.307-2.806,2.937s1.162,2.937,2.806,2.937c0.487,0,1.028-0.123,1.415-0.297l0.041-2.73H199.887z"/>
</g>
</svg>
